<?xml version="1.0" encoding="UTF-8" standalone="no"?>
<!DOCTYPE svg PUBLIC "-//W3C//DTD SVG 1.1//EN"
 "http://www.w3.org/Graphics/SVG/1.1/DTD/svg11.dtd">
<!-- Generated by graphviz version 2.40.1 (20161225.0304)
 -->
<!-- Title: D Pages: 1 -->
<svg width="158pt" height="264pt"
 viewBox="0.00 0.00 158.00 264.00" xmlns="http://www.w3.org/2000/svg" xmlns:xlink="http://www.w3.org/1999/xlink">
<g id="graph0" class="graph" transform="scale(1 1) rotate(0) translate(4 260)">
<title>D</title>
<polygon fill="#ffffff" stroke="transparent" points="-4,4 -4,-260 154,-260 154,4 -4,4"/>
<g id="clust1" class="cluster">
<title>cluster_0</title>
<polygon fill="#d3d3d3" stroke="#d3d3d3" points="8,-8 8,-248 142,-248 142,-8 8,-8"/>
<text text-anchor="middle" x="75" y="-231.4" font-family="Times,serif" font-size="14.00" fill="#000000">老子</text>
</g>
<g id="clust2" class="cluster">
<title>cluster_1</title>
<polygon fill="#c0c0c0" stroke="#c0c0c0" points="16,-16 16,-215.2 134,-215.2 134,-16 16,-16"/>
<text text-anchor="middle" x="75" y="-198.6" font-family="Times,serif" font-size="14.00" fill="#000000">&#39;道&#39;</text>
</g>
<g id="clust3" class="cluster">
<title>cluster_2</title>
<polygon fill="#d3d3d3" stroke="#d3d3d3" points="24,-24 24,-182.4 126,-182.4 126,-24 24,-24"/>
<text text-anchor="middle" x="75" y="-165.8" font-family="Times,serif" font-size="14.00" fill="#000000">老子</text>
</g>
<g id="clust4" class="cluster">
<title>cluster_3</title>
<polygon fill="#c0c0c0" stroke="#c0c0c0" points="32,-32 32,-149.6 118,-149.6 118,-32 32,-32"/>
<text text-anchor="middle" x="75" y="-133" font-family="Times,serif" font-size="14.00" fill="#000000">&#39;道&#39;</text>
</g>
<g id="clust5" class="cluster">
<title>cluster_4</title>
<polygon fill="#d3d3d3" stroke="#d3d3d3" points="40,-40 40,-116.8 110,-116.8 110,-40 40,-40"/>
<text text-anchor="middle" x="75" y="-100.2" font-family="Times,serif" font-size="14.00" fill="#000000">老子</text>
</g>
<!-- ... -->
<g id="node1" class="node">
<title>...</title>
<ellipse fill="#add8e6" stroke="#add8e6" cx="75" cy="-66" rx="27" ry="18"/>
<text text-anchor="middle" x="75" y="-61.8" font-family="Times,serif" font-size="14.00" fill="#000000">...</text>
</g>
</g>
</svg>
