<?xml version="1.0" encoding="UTF-8" standalone="no"?>
<!DOCTYPE svg PUBLIC "-//W3C//DTD SVG 1.1//EN"
 "http://www.w3.org/Graphics/SVG/1.1/DTD/svg11.dtd">
<!-- Generated by graphviz version 2.40.1 (20161225.0304)
 -->
<!-- Title: D Pages: 1 -->
<svg width="68pt" height="116pt"
 viewBox="0.00 0.00 67.62 116.00" xmlns="http://www.w3.org/2000/svg" xmlns:xlink="http://www.w3.org/1999/xlink">
<g id="graph0" class="graph" transform="scale(1 1) rotate(0) translate(4 112)">
<title>D</title>
<polygon fill="#ffffff" stroke="transparent" points="-4,4 -4,-112 63.6154,-112 63.6154,4 -4,4"/>
<!-- 老子 -->
<g id="node1" class="node">
<title>老子</title>
<ellipse fill="#add8e6" stroke="#add8e6" cx="29.8077" cy="-90" rx="29.6166" ry="18"/>
<text text-anchor="middle" x="29.8077" y="-85.8" font-family="Times,serif" font-size="14.00" fill="#000000">老子</text>
</g>
<!-- 道 -->
<g id="node2" class="node">
<title>道</title>
<ellipse fill="#add8e6" stroke="#add8e6" cx="29.8077" cy="-18" rx="27" ry="18"/>
<text text-anchor="middle" x="29.8077" y="-13.8" font-family="Times,serif" font-size="14.00" fill="#000000">道</text>
</g>
<!-- 老子&#45;&gt;道 -->
<g id="edge1" class="edge">
<title>老子&#45;&gt;道</title>
<path fill="none" stroke="#000000" d="M23.892,-72.2022C23.0875,-64.1807 22.8648,-54.5231 23.2239,-45.5957"/>
<polygon fill="#000000" stroke="#000000" points="26.7173,-45.8099 23.9126,-35.593 19.7339,-45.3289 26.7173,-45.8099"/>
</g>
<!-- 道&#45;&gt;老子 -->
<g id="edge2" class="edge">
<title>道&#45;&gt;老子</title>
<path fill="none" stroke="#000000" d="M35.7027,-35.593C36.5171,-43.5865 36.7497,-53.2363 36.4005,-62.1759"/>
<polygon fill="#000000" stroke="#000000" points="32.9052,-61.9891 35.7234,-72.2022 39.8893,-62.4608 32.9052,-61.9891"/>
</g>
</g>
</svg>
