<?xml version="1.0" encoding="UTF-8" standalone="no"?>
<!DOCTYPE svg PUBLIC "-//W3C//DTD SVG 1.1//EN"
 "http://www.w3.org/Graphics/SVG/1.1/DTD/svg11.dtd">
<!-- Generated by graphviz version 2.40.1 (20161225.0304)
 -->
<!-- Title: D Pages: 1 -->
<svg width="260pt" height="264pt"
 viewBox="0.00 0.00 260.00 264.00" xmlns="http://www.w3.org/2000/svg" xmlns:xlink="http://www.w3.org/1999/xlink">
<g id="graph0" class="graph" transform="scale(1 1) rotate(0) translate(4 260)">
<title>D</title>
<polygon fill="#ffffff" stroke="transparent" points="-4,4 -4,-260 256,-260 256,4 -4,4"/>
<g id="clust1" class="cluster">
<title>cluster_0</title>
<polygon fill="#d3d3d3" stroke="#d3d3d3" points="8,-8 8,-248 244,-248 244,-8 8,-8"/>
<text text-anchor="middle" x="126" y="-231.4" font-family="Times,serif" font-size="14.00" fill="#000000">老子</text>
</g>
<g id="clust2" class="cluster">
<title>cluster_1</title>
<polygon fill="#c0c0c0" stroke="#c0c0c0" points="16,-16 16,-215.2 236,-215.2 236,-16 16,-16"/>
<text text-anchor="middle" x="126" y="-198.6" font-family="Times,serif" font-size="14.00" fill="#000000">‘道’</text>
</g>
<g id="clust3" class="cluster">
<title>cluster_2</title>
<polygon fill="#d3d3d3" stroke="#d3d3d3" points="24,-24 24,-182.4 228,-182.4 228,-24 24,-24"/>
<text text-anchor="middle" x="126" y="-165.8" font-family="Times,serif" font-size="14.00" fill="#000000">‘道中老子’</text>
</g>
<g id="clust4" class="cluster">
<title>cluster_3</title>
<polygon fill="#c0c0c0" stroke="#c0c0c0" points="32,-32 32,-149.6 220,-149.6 220,-32 32,-32"/>
<text text-anchor="middle" x="126" y="-133" font-family="Times,serif" font-size="14.00" fill="#000000">‘道中老子的道’</text>
</g>
<g id="clust5" class="cluster">
<title>cluster_4</title>
<polygon fill="#d3d3d3" stroke="#d3d3d3" points="40,-40 40,-116.8 212,-116.8 212,-40 40,-40"/>
<text text-anchor="middle" x="126" y="-100.2" font-family="Times,serif" font-size="14.00" fill="#000000">‘道中老子的道中的老子’</text>
</g>
<!-- ... -->
<g id="node1" class="node">
<title>...</title>
<ellipse fill="#add8e6" stroke="#add8e6" cx="126" cy="-66" rx="27" ry="18"/>
<text text-anchor="middle" x="126" y="-61.8" font-family="Times,serif" font-size="14.00" fill="#000000">...</text>
</g>
</g>
</svg>
